solid OpenSCAD_Model
  facet normal 0.809017 0.587785 0
    outer loop
      vertex 0.5 0 25
      vertex 0.154509 0.475528 -25
      vertex 0.154509 0.475528 25
    endloop
  endfacet
  facet normal 0.809017 0.587785 0
    outer loop
      vertex 0.154509 0.475528 -25
      vertex 0.5 0 25
      vertex 0.5 0 -25
    endloop
  endfacet
  facet normal -0.309017 0.951057 0
    outer loop
      vertex 0.154509 0.475528 -25
      vertex -0.404509 0.293893 25
      vertex 0.154509 0.475528 25
    endloop
  endfacet
  facet normal -0.309017 0.951057 0
    outer loop
      vertex -0.404509 0.293893 25
      vertex 0.154509 0.475528 -25
      vertex -0.404509 0.293893 -25
    endloop
  endfacet
  facet normal -1 0 0
    outer loop
      vertex -0.404509 -0.293893 -25
      vertex -0.404509 0.293893 25
      vertex -0.404509 0.293893 -25
    endloop
  endfacet
  facet normal -1 -0 0
    outer loop
      vertex -0.404509 0.293893 25
      vertex -0.404509 -0.293893 -25
      vertex -0.404509 -0.293893 25
    endloop
  endfacet
  facet normal -0.309017 -0.951057 0
    outer loop
      vertex -0.404509 -0.293893 -25
      vertex 0.154509 -0.475528 25
      vertex -0.404509 -0.293893 25
    endloop
  endfacet
  facet normal -0.309017 -0.951057 -0
    outer loop
      vertex 0.154509 -0.475528 25
      vertex -0.404509 -0.293893 -25
      vertex 0.154509 -0.475528 -25
    endloop
  endfacet
  facet normal 0.809017 -0.587785 0
    outer loop
      vertex 0.154509 -0.475528 25
      vertex 0.5 0 -25
      vertex 0.5 0 25
    endloop
  endfacet
  facet normal 0.809017 -0.587785 0
    outer loop
      vertex 0.5 0 -25
      vertex 0.154509 -0.475528 25
      vertex 0.154509 -0.475528 -25
    endloop
  endfacet
  facet normal 0 0 -1
    outer loop
      vertex 0.154509 -0.475528 -25
      vertex 0.154509 0.475528 -25
      vertex 0.5 0 -25
    endloop
  endfacet
  facet normal 0 0 -1
    outer loop
      vertex -0.404509 -0.293893 -25
      vertex 0.154509 0.475528 -25
      vertex 0.154509 -0.475528 -25
    endloop
  endfacet
  facet normal 0 0 -1
    outer loop
      vertex 0.154509 0.475528 -25
      vertex -0.404509 -0.293893 -25
      vertex -0.404509 0.293893 -25
    endloop
  endfacet
  facet normal 0 0 1
    outer loop
      vertex 0.154509 0.475528 25
      vertex 0.154509 -0.475528 25
      vertex 0.5 0 25
    endloop
  endfacet
  facet normal -0 0 1
    outer loop
      vertex -0.404509 0.293893 25
      vertex 0.154509 -0.475528 25
      vertex 0.154509 0.475528 25
    endloop
  endfacet
  facet normal 0 0 1
    outer loop
      vertex 0.154509 -0.475528 25
      vertex -0.404509 0.293893 25
      vertex -0.404509 -0.293893 25
    endloop
  endfacet
endsolid OpenSCAD_Model
